<svg xmlns="http://www.w3.org/2000/svg" viewBox="-1.2000000000000002 -2.4000000000000004 26.4 32.4" fill="none" x="0px" y="0px"><path fill-rule="evenodd" clip-rule="evenodd" d="M16.7077 16.0006C18.1332 14.4083 19 12.3054 19 10C19 5.02944 14.9706 1 10 1C5.02944 1 1 5.02944 1 10C1 14.9706 5.02944 19 10 19C12.3054 19 14.4083 18.1332 16.0006 16.7077L22.1464 22.8536C22.3417 23.0488 22.6583 23.0488 22.8536 22.8536C23.0488 22.6583 23.0488 22.3417 22.8536 22.1464L16.7077 16.0006ZM15.7393 15.5732C17.1385 14.1326 18 12.1669 18 10C18 5.58172 14.4183 2 10 2C5.58172 2 2 5.58172 2 10C2 14.4183 5.58172 18 10 18C12.1669 18 14.1326 17.1385 15.5732 15.7393C15.5934 15.7062 15.6179 15.675 15.6464 15.6464C15.675 15.6179 15.7062 15.5934 15.7393 15.5732Z" fill="black"/><text x="0.0" y="28.2" font-size="1.2000000000000002" font-weight="bold" font-family="Arbeit Regular, Helvetica, Arial-Unicode, Arial, Sans-serif" fill="#000000">Created by Amazona Adorada</text><text x="0.0" y="29.4" font-size="1.2000000000000002" font-weight="bold" font-family="Arbeit Regular, Helvetica, Arial-Unicode, Arial, Sans-serif" fill="#000000">from Noun Project</text></svg>